# xmcd
#
# Track frame offsets:
#	150
#	17427
#	37387
#	56352
#	72787
#	84702
#	100905
#	114952
#	132985
#	145090
#	159212
#	177530
#
# Disc length: 2537 seconds
#
# Revision: 1
# Processed by: cddbd v1.5.1PL0 Copyright (c) Steve Scherf et al.
# Submitted via: CDex 1.50Beta5
#
DISCID=9c09e70c
DTITLE=TWIGGY - プロム・ザ・パーティ
DYEAR=1991
DGENRE=Pop
TTITLE0=Kiss!Kiss!Kiss
TTITLE1=ピンク・キャデラック
TTITLE2=プロム
TTITLE3=憧れのNew York City
TTITLE4=Just A Girl
TTITLE5=Another Boy
TTITLE6=Rolling Toy
TTITLE7=投げ捨てた記憶
TTITLE8=Slicky Night
TTITLE9=More Reaction
TTITLE10=Happy Birthday
TTITLE11=ポールポジション
EXTD=
EXTT0=
EXTT1=
EXTT2=
EXTT3=
EXTT4=
EXTT5=
EXTT6=
EXTT7=
EXTT8=
EXTT9=
EXTT10=
EXTT11=
PLAYORDER=
